<svg xmlns="http://www.w3.org/2000/svg" viewBox="0 0 1200 750" fill="none">
  <rect width="1200" height="750" fill="#F9FAFB"/>
  <rect width="1200" height="56" fill="#FFFFFF" stroke="#E5E7EB"/>
  <text x="40" y="36" fill="#111827" font-family="system-ui,sans-serif" font-size="18" font-weight="700">EventHub</text>
  <rect x="900" y="14" width="120" height="28" rx="6" fill="#111827"/>
  <text x="960" y="33" text-anchor="middle" fill="#FFFFFF" font-family="system-ui,sans-serif" font-size="12" font-weight="600">Register Now</text>
  <rect x="1040" y="14" width="120" height="28" rx="6" fill="#F3F4F6" stroke="#E5E7EB"/>
  <text x="1100" y="33" text-anchor="middle" fill="#374151" font-family="system-ui,sans-serif" font-size="12">Live Stream</text>
  <rect x="40" y="88" width="1120" height="200" rx="16" fill="#111827"/>
  <text x="72" y="140" fill="#FFFFFF" font-family="system-ui,sans-serif" font-size="28" font-weight="800">Tech Conference 2025</text>
  <text x="72" y="178" fill="#9CA3AF" font-family="system-ui,sans-serif" font-size="15">White-labeled event management " Live streaming " Ticket registration</text>
  <rect x="72" y="200" width="100" height="32" rx="6" fill="#6366F1"/>
  <text x="122" y="221" text-anchor="middle" fill="#FFFFFF" font-family="system-ui,sans-serif" font-size="12" font-weight="600">Mar 1517</text>
  <rect x="184" y="200" width="80" height="32" rx="6" fill="#374151"/>
  <text x="224" y="221" text-anchor="middle" fill="#D1D5DB" font-family="system-ui,sans-serif" font-size="12">Virtual</text>
  <text x="40" y="340" fill="#111827" font-family="system-ui,sans-serif" font-size="20" font-weight="700">Event Schedule</text>
  <rect x="40" y="360" width="540" height="100" rx="12" fill="#FFFFFF" stroke="#E5E7EB"/>
  <rect x="56" y="376" width="48" height="48" rx="8" fill="#EEF2FF"/>
  <text x="80" y="406" text-anchor="middle" fill="#4338CA" font-family="system-ui,sans-serif" font-size="14" font-weight="700">09</text>
  <text x="120" y="396" fill="#111827" font-family="system-ui,sans-serif" font-size="15" font-weight="600">Opening Keynote</text>
  <text x="120" y="418" fill="#6B7280" font-family="system-ui,sans-serif" font-size="13">Dr. Sarah Chen " Main Hall</text>
  <rect x="40" y="476" width="540" height="100" rx="12" fill="#FFFFFF" stroke="#E5E7EB"/>
  <rect x="56" y="492" width="48" height="48" rx="8" fill="#F0FDF4"/>
  <text x="80" y="522" text-anchor="middle" fill="#16A34A" font-family="system-ui,sans-serif" font-size="14" font-weight="700">11</text>
  <text x="120" y="512" fill="#111827" font-family="system-ui,sans-serif" font-size="15" font-weight="600">React Architecture Workshop</text>
  <text x="120" y="534" fill="#6B7280" font-family="system-ui,sans-serif" font-size="13">Hands-on session " Room B</text>
  <rect x="620" y="360" width="540" height="216" rx="12" fill="#FFFFFF" stroke="#E5E7EB"/>
  <text x="644" y="392" fill="#111827" font-family="system-ui,sans-serif" font-size="16" font-weight="700">Featured Speakers</text>
  <circle cx="676" cy="440" r="24" fill="#E5E7EB"/>
  <text x="712" y="436" fill="#111827" font-family="system-ui,sans-serif" font-size="14" font-weight="600">Alex Rivera</text>
  <text x="712" y="456" fill="#6B7280" font-family="system-ui,sans-serif" font-size="12">Frontend Lead</text>
  <circle cx="676" cy="500" r="24" fill="#E5E7EB"/>
  <text x="712" y="496" fill="#111827" font-family="system-ui,sans-serif" font-size="14" font-weight="600">Morgan Lee</text>
  <text x="712" y="516" fill="#6B7280" font-family="system-ui,sans-serif" font-size="12">DevOps Engineer</text>
  <rect x="40" y="612" width="1120" height="100" rx="12" fill="#EEF2FF" stroke="#C7D2FE"/>
  <text x="64" y="652" fill="#3730A3" font-family="system-ui,sans-serif" font-size="14" font-weight="600">Built with shadcn/ui " Prisma ORM " PostgreSQL " Live-stream integration</text>
  <text x="64" y="678" fill="#4338CA" font-family="system-ui,sans-serif" font-size="13">10+ reusable UI components " Optimized for conference workflows</text>
</svg>
